<svg xmlns="http://www.w3.org/2000/svg" viewBox="0 0 320.93 119.66"><defs><style>.cls-1{fill:#222;}.cls-2{fill:#848484;}</style></defs><g id="Layer_2" data-name="Layer 2"><g id="Layer_1-2" data-name="Layer 1"><path class="cls-1" d="M195.79,27.88l-2.87.46,0,.18a33.83,33.83,0,0,1,.89,6.06l0,.39h-8l0-.35a25.23,25.23,0,0,0-6.22-14.95l-.22-.26,5.62-5.61.25.28c.78.87,1.39,1.6,1.93,2.33a1.48,1.48,0,0,0,2,.29,1.45,1.45,0,0,0,.29-2A36.46,36.46,0,0,0,160.38,0a38.08,38.08,0,0,0-3.86.2,1.43,1.43,0,0,0-1,.54,1.37,1.37,0,0,0-.31,1.07,1.45,1.45,0,0,0,1.6,1.29C157.4,3,158,3,158.54,3l.39,0v8l-.35,0a25.19,25.19,0,0,0-15,6.21l-.25.22-5.63-5.63.28-.25a33.33,33.33,0,0,1,5.23-3.84,1.53,1.53,0,0,0,.36-.32L142.15,5a1.29,1.29,0,0,0-.39.16A36.43,36.43,0,0,0,124,36.42,37,37,0,0,0,125.23,46l2.84-.67a33.49,33.49,0,0,1,7.37-31.21l.26-.3,5.62,5.63-.22.26a25.62,25.62,0,0,0-4.78,8.12,1.46,1.46,0,0,0,.87,1.87,1.47,1.47,0,0,0,1.86-.88,22.8,22.8,0,0,1,5.33-8.37,22.48,22.48,0,0,1,16-6.64,1.47,1.47,0,0,0,1.46-1.46V2.94l.38,0a33.11,33.11,0,0,1,20.51,8.51l.28.26-5.62,5.62-.25-.22a25,25,0,0,0-4.58-3.19,1.46,1.46,0,0,0-2.09,1.71,1.44,1.44,0,0,0,.7.85A22.77,22.77,0,0,1,183,36.42a23.08,23.08,0,0,1-.41,4.29c-.08.46-.2,1-.34,1.49a1,1,0,0,0,0,.25l2.81.63a.61.61,0,0,0,0-.13c.16-.57.29-1.15.4-1.69a24.25,24.25,0,0,0,.39-3l0-.34h7.93v.36a33.05,33.05,0,0,1-8.5,20.52l-.26.3-6.62-6.63a1.47,1.47,0,0,0-1.32-.4l-.26.08a1.73,1.73,0,0,0-.49.32,22.56,22.56,0,0,1-6.78,4.68,1.46,1.46,0,0,0,0,2.64,1.42,1.42,0,0,0,1.21,0,25.48,25.48,0,0,0,6.36-4.07l.25-.22L183,61.11l-.28.25a33.37,33.37,0,0,1-10.57,6.45,1.44,1.44,0,0,0-.92,1.58,1.46,1.46,0,0,0,1.94,1.15,36.41,36.41,0,0,0,12.93-8.36l.11-.1a36.19,36.19,0,0,0,10.59-25.65v0A36.87,36.87,0,0,0,195.79,27.88Z"/><path class="cls-1" d="M151.94,58.73l0,.07a1.45,1.45,0,0,1-2,1,25.48,25.48,0,0,1-6.3-4.06l-.25-.21-5.62,5.62.28.26a32.88,32.88,0,0,0,8,5.33L145,69.4a36,36,0,0,1-10.32-7.26,37.84,37.84,0,0,1-4.3-5.16,1.46,1.46,0,0,1-.2-1.17,1.38,1.38,0,0,1,.72-.93,1.23,1.23,0,0,1,.64-.17,1.67,1.67,0,0,1,1.33.72,29.55,29.55,0,0,0,2.62,3.33l.25.28,5.63-5.62-.22-.25a25.5,25.5,0,0,1-5.53-10.54,1.46,1.46,0,0,1,2.18-1.6,1.41,1.41,0,0,1,.65.89,22.8,22.8,0,0,0,6,10.53,22.38,22.38,0,0,0,6.73,4.64A1.45,1.45,0,0,1,151.94,58.73Z"/><path class="cls-1" d="M145.43,8.46a3.92,3.92,0,1,1,3.91-3.92A3.93,3.93,0,0,1,145.43,8.46Zm0-5.65a1.73,1.73,0,1,0,1.73,1.73A1.73,1.73,0,0,0,145.43,2.81Z"/><path class="cls-1" d="M136.68,35.42a3.92,3.92,0,1,1,3.92-3.92A3.93,3.93,0,0,1,136.68,35.42Zm0-5.65a1.74,1.74,0,1,0,1.74,1.73A1.74,1.74,0,0,0,136.68,29.77Z"/><path class="cls-1" d="M182.93,49.31a3.92,3.92,0,1,1,3.92-3.91A3.92,3.92,0,0,1,182.93,49.31Zm0-5.65a1.74,1.74,0,1,0,1.73,1.74A1.74,1.74,0,0,0,182.93,43.66Z"/><path class="cls-1" d="M148.07,73.52A3.92,3.92,0,1,1,152,69.61,3.92,3.92,0,0,1,148.07,73.52Zm0-5.65a1.74,1.74,0,1,0,1.73,1.74A1.74,1.74,0,0,0,148.07,67.87Z"/><path class="cls-1" d="M193.56,29.38a3.92,3.92,0,1,1,3.92-3.91A3.92,3.92,0,0,1,193.56,29.38Zm0-5.65a1.74,1.74,0,1,0,1.74,1.74A1.74,1.74,0,0,0,193.56,23.73Z"/><path class="cls-1" d="M127.37,52.1a3.92,3.92,0,1,1,3.92-3.92A3.93,3.93,0,0,1,127.37,52.1Zm0-5.65a1.74,1.74,0,1,0,1.74,1.73A1.74,1.74,0,0,0,127.37,46.45Z"/><path class="cls-2" d="M165.8,36.44A5.42,5.42,0,1,1,160.39,31,5.41,5.41,0,0,1,165.8,36.44Z"/><path class="cls-2" d="M160.38,19.26A17.18,17.18,0,0,0,155,52.74a17.1,17.1,0,0,0,10.83,0,17.18,17.18,0,0,0-5.42-33.48Zm8.21,25.48a3.34,3.34,0,0,0-5,1.95,3.84,3.84,0,0,0-.09,1,11.32,11.32,0,0,1-6.18,0,3.32,3.32,0,0,0-4.2-3.37,3.91,3.91,0,0,0-.91.41,11.79,11.79,0,0,1-3.09-5.35,3.3,3.3,0,0,0,0-5.9,11.9,11.9,0,0,1,3.09-5.35,3.26,3.26,0,0,0,.91.42,3.41,3.41,0,0,0,2.56-.32,3.38,3.38,0,0,0,1.64-3,11.32,11.32,0,0,1,6.18,0,3.84,3.84,0,0,0,.09,1,3.44,3.44,0,0,0,1.56,2,3.4,3.4,0,0,0,3.47-.11,11.82,11.82,0,0,1,3.08,5.36,3.3,3.3,0,0,0,0,5.9A11.79,11.79,0,0,1,168.59,44.74Z"/><polygon class="cls-2" points="165.8 50.96 154.97 50.96 154.97 82.66 156.78 83.7 160.38 85.78 165.8 82.66 165.8 82.64 163.06 77.89 163.79 76.62 165.8 73.14 165.8 70.33 163.06 65.58 165.8 60.83 165.8 50.96"/><path class="cls-2" d="M0,100.81H2.53v18.51H0Z"/><path class="cls-2" d="M11.68,100.81H29.6v2.34H21.91v16.17H19.38V103.15h-7.7Z"/><path class="cls-2" d="M40.4,105.55c0,1.54,1.25,2.38,3.55,2.66l3.62.42c3.13.34,6.08,1.67,6.08,5.5,0,3-2.43,5.53-7.54,5.53-5.74,0-8.06-2.92-8.89-5.63h2.71c.63,1.4,2.22,3.31,6.18,3.31,3.23,0,5-1.31,5-3.08,0-2.19-1.54-2.84-3.76-3.13l-3.65-.39c-3.34-.34-5.84-2-5.84-5.19,0-3,2.76-5.06,7-5.06,5.55,0,7.69,2.71,8.31,5H50.57c-.63-1.26-2.14-2.72-5.68-2.72C41.89,102.81,40.4,103.88,40.4,105.55Z"/><path class="cls-1" d="M67.37,111v8.32H62.94V100.81h4.43v8l8.47-8h5.77l-9.42,8.91,9.83,9.6H76Z"/><path class="cls-2" d="M90,100.81h14.5v2.34h-12v5.17h7.17v2.34H92.51V117h13v2.35H90Z"/><path class="cls-2" d="M123.08,119.32h-2.53V111.5l-8.4-10.69h3.21l6.52,8.37,6.49-8.37h2.95l-8.24,10.64Z"/><path class="cls-1" d="M142.9,105.76c0,1,.86,1.59,2.51,1.77,1,.11,1.77.16,2.92.26,4.22.34,7,1.93,7,5.9,0,3.65-2.82,6-8.21,6-6.37,0-8.66-3.18-9.29-5.82h4.67c.42,1,1.72,2.25,4.62,2.25,2.47,0,3.62-.84,3.62-2.09s-1-1.85-2.69-2c-1.12-.13-1.87-.19-2.94-.29-4.07-.42-6.76-2.24-6.76-5.74s3.21-5.47,7.78-5.47c6.07,0,8.21,2.89,8.76,5.24h-4.46c-.42-.71-1.7-1.7-4.3-1.7C144.05,104,142.9,104.64,142.9,105.76Z"/><path class="cls-2" d="M164.76,100.81h14.5v2.34h-12v5.17h7.17v2.34h-7.17V117h13v2.35H164.76Z"/><path class="cls-2" d="M189.51,100.81h9.83c4,0,6.1,1.77,6.1,5.24a4.58,4.58,0,0,1-3.78,4.77l4.49,8.5h-2.69L199,111.08h-7v8.24h-2.53Zm2.53,2.34v5.61h7.22c2.4,0,3.58-.83,3.58-2.71s-1.18-2.9-3.58-2.9Z"/><path class="cls-2" d="M224.46,119.4h-2.38l-8.29-18.59h2.87l6.68,15.3,6.67-15.3h2.58Z"/><path class="cls-2" d="M241.7,100.81h2.53v18.51H241.7Z"/><path class="cls-2" d="M254.14,110.06c0-5.34,3.89-9.57,9.15-9.57,5.43,0,7.9,3.52,8.53,5.74h-2.63a6.44,6.44,0,0,0-5.9-3.36c-4,0-6.52,3.31-6.52,7.19s2.56,7.2,6.52,7.2a6.29,6.29,0,0,0,5.95-3.39h2.58c-.55,2.09-2.87,5.76-8.53,5.76C258,119.63,254.14,115.41,254.14,110.06Z"/><path class="cls-2" d="M281.53,100.81H296v2.34H284v5.17h7.17v2.34H284V117h13v2.35H281.53Z"/><path class="cls-2" d="M307.69,105.55c0,1.54,1.25,2.38,3.54,2.66l3.63.42c3.13.34,6.07,1.67,6.07,5.5,0,3-2.42,5.53-7.53,5.53-5.74,0-8.06-2.92-8.89-5.63h2.71c.62,1.4,2.21,3.31,6.18,3.31,3.23,0,5-1.31,5-3.08,0-2.19-1.53-2.84-3.75-3.13l-3.65-.39c-3.34-.34-5.84-2-5.84-5.19,0-3,2.76-5.06,7-5.06,5.56,0,7.69,2.71,8.32,5h-2.63c-.63-1.26-2.14-2.72-5.69-2.72C309.17,102.81,307.69,103.88,307.69,105.55Z"/></g></g></svg>