<svg xmlns="http://www.w3.org/2000/svg" viewBox="0 0 328.89 115.93"><defs><style>.cls-1{fill:#fff;}.cls-2{fill:#848482;}</style></defs><g id="Layer_2" data-name="Layer 2"><g id="Layer_1-2" data-name="Layer 1"><path class="cls-1" d="M199.77,27.88l-2.87.46,0,.18a33.83,33.83,0,0,1,.89,6.06V35h-7.94l0-.35a25.29,25.29,0,0,0-6.22-14.95l-.22-.26L189,13.8l.26.28c.78.87,1.39,1.6,1.93,2.33a1.48,1.48,0,0,0,2,.29,1.45,1.45,0,0,0,.29-2A36.46,36.46,0,0,0,164.36,0a38.43,38.43,0,0,0-3.87.2,1.41,1.41,0,0,0-1,.54,1.41,1.41,0,0,0-.32,1.07,1.46,1.46,0,0,0,1.61,1.29c.56-.06,1.13-.11,1.71-.14l.38,0v8l-.34,0a25.19,25.19,0,0,0-14.95,6.21l-.25.22-5.63-5.63.28-.25a33.72,33.72,0,0,1,5.22-3.84,1.4,1.4,0,0,0,.37-.32L146.13,5a1.11,1.11,0,0,0-.39.16A36.41,36.41,0,0,0,129.21,46l2.84-.67a33.49,33.49,0,0,1,7.37-31.21l.25-.3,5.62,5.63-.21.26a25.46,25.46,0,0,0-4.79,8.12,1.45,1.45,0,0,0,.05,1.12,1.43,1.43,0,0,0,.83.75,1.47,1.47,0,0,0,1.86-.88,22.9,22.9,0,0,1,5.32-8.37,22.51,22.51,0,0,1,16-6.64,1.47,1.47,0,0,0,1.46-1.46V2.94l.38,0a33.11,33.11,0,0,1,20.51,8.51l.28.26-5.62,5.62-.26-.22a24.62,24.62,0,0,0-4.57-3.19,1.46,1.46,0,0,0-1.4,2.56A22.74,22.74,0,0,1,187,36.42a23.08,23.08,0,0,1-.41,4.29c-.09.46-.2,1-.34,1.49a1,1,0,0,0,0,.25l2.81.63a.65.65,0,0,0,0-.13c.16-.57.28-1.15.39-1.69a26.24,26.24,0,0,0,.4-3l0-.34h7.93v.36a33.06,33.06,0,0,1-8.51,20.52l-.25.3-6.63-6.63a1.44,1.44,0,0,0-1.31-.4l-.27.08a1.68,1.68,0,0,0-.48.32,22.48,22.48,0,0,1-6.79,4.68,1.47,1.47,0,0,0-.81,1.65,1.44,1.44,0,0,0,.78,1,1.42,1.42,0,0,0,1.21,0,25.43,25.43,0,0,0,6.35-4.07l.26-.22L187,61.11l-.28.25a33.31,33.31,0,0,1-10.58,6.45,1.46,1.46,0,0,0,1,2.73,36.36,36.36,0,0,0,12.94-8.36l.11-.1a36.23,36.23,0,0,0,10.58-25.65v0A36.86,36.86,0,0,0,199.77,27.88Z"/><path class="cls-1" d="M155.92,58.73l0,.07a1.5,1.5,0,0,1-.81,1,1.47,1.47,0,0,1-1.18,0,25.29,25.29,0,0,1-6.3-4.06l-.25-.21-5.63,5.62.29.26a32.69,32.69,0,0,0,8,5.33l-1.13,2.7a36.2,36.2,0,0,1-10.33-7.26A37.77,37.77,0,0,1,134.31,57a1.5,1.5,0,0,1-.21-1.17,1.44,1.44,0,0,1,.72-.93,1.23,1.23,0,0,1,.64-.17,1.65,1.65,0,0,1,1.33.72,30.82,30.82,0,0,0,2.63,3.33l.25.28,5.62-5.62-.22-.25a25.48,25.48,0,0,1-5.52-10.54,1.47,1.47,0,0,1,1.06-1.78,1.45,1.45,0,0,1,1.11.18,1.34,1.34,0,0,1,.65.89,22.91,22.91,0,0,0,6,10.53,22.46,22.46,0,0,0,6.72,4.64A1.44,1.44,0,0,1,155.92,58.73Z"/><path class="cls-1" d="M149.4,8.46a3.92,3.92,0,1,1,3.92-3.92A3.93,3.93,0,0,1,149.4,8.46Zm0-5.65a1.73,1.73,0,1,0,1.74,1.73A1.73,1.73,0,0,0,149.4,2.81Z"/><path class="cls-1" d="M140.66,35.42a3.92,3.92,0,1,1,3.92-3.92A3.93,3.93,0,0,1,140.66,35.42Zm0-5.65a1.74,1.74,0,1,0,1.73,1.73A1.73,1.73,0,0,0,140.66,29.77Z"/><path class="cls-1" d="M186.91,49.31a3.92,3.92,0,1,1,3.92-3.91A3.92,3.92,0,0,1,186.91,49.31Zm0-5.65a1.74,1.74,0,1,0,1.73,1.74A1.74,1.74,0,0,0,186.91,43.66Z"/><path class="cls-1" d="M152,73.52A3.92,3.92,0,1,1,156,69.61,3.91,3.91,0,0,1,152,73.52Zm0-5.65a1.74,1.74,0,1,0,1.74,1.74A1.74,1.74,0,0,0,152,67.87Z"/><path class="cls-1" d="M197.54,29.38a3.92,3.92,0,1,1,3.92-3.91A3.92,3.92,0,0,1,197.54,29.38Zm0-5.65a1.74,1.74,0,1,0,1.73,1.74A1.73,1.73,0,0,0,197.54,23.73Z"/><path class="cls-1" d="M131.35,52.1a3.92,3.92,0,1,1,3.92-3.92A3.93,3.93,0,0,1,131.35,52.1Zm0-5.65a1.74,1.74,0,1,0,1.73,1.73A1.73,1.73,0,0,0,131.35,46.45Z"/><path class="cls-2" d="M169.78,36.44A5.42,5.42,0,1,1,164.37,31,5.41,5.41,0,0,1,169.78,36.44Z"/><path class="cls-2" d="M164.36,19.26a17.18,17.18,0,0,0-5.42,33.48,17.13,17.13,0,0,0,10.84,0,17.18,17.18,0,0,0-5.42-33.48Zm8.2,25.48a3.34,3.34,0,0,0-5,1.95,3.46,3.46,0,0,0-.09,1,11.32,11.32,0,0,1-6.18,0,3.32,3.32,0,0,0-4.2-3.37,3.73,3.73,0,0,0-.91.41,11.7,11.7,0,0,1-3.09-5.35,3.31,3.31,0,0,0,0-5.9,11.81,11.81,0,0,1,3.09-5.35,3.13,3.13,0,0,0,.91.42,3.3,3.3,0,0,0,4.2-3.37,11.32,11.32,0,0,1,6.18,0,3.46,3.46,0,0,0,.09,1,3.31,3.31,0,0,0,5,1.93,11.64,11.64,0,0,1,3.08,5.36,3.31,3.31,0,0,0,0,5.9A11.62,11.62,0,0,1,172.56,44.74Z"/><polygon class="cls-2" points="169.78 50.96 158.94 50.96 158.94 82.66 160.75 83.7 164.36 85.78 169.78 82.66 169.78 82.64 167.03 77.89 167.76 76.62 169.78 73.14 169.78 70.33 167.03 65.58 169.78 60.83 169.78 50.96"/><path class="cls-2" d="M0,96.59H2.59v19H0Z"/><path class="cls-2" d="M12,96.59H30.35V99H22.46v16.58H19.87V99H12Z"/><path class="cls-1" d="M42.89,101.67c0,1,.88,1.63,2.57,1.82,1,.11,1.81.16,3,.27,4.33.35,7.2,2,7.2,6,0,3.75-2.89,6.13-8.43,6.13-6.52,0-8.88-3.27-9.52-6h4.79c.43,1,1.76,2.3,4.73,2.3,2.54,0,3.72-.85,3.72-2.14s-1-1.9-2.76-2.08c-1.15-.14-1.92-.19-3-.3-4.17-.42-6.92-2.3-6.92-5.88s3.28-5.62,8-5.62c6.24,0,8.43,3,9,5.38H50.62c-.43-.72-1.74-1.74-4.42-1.74C44.07,99.88,42.89,100.52,42.89,101.67Z"/><path class="cls-1" d="M69.2,107.05v8.53H64.65v-19H69.2v8.21l8.69-8.21H83.8l-9.65,9.15,10.08,9.84H78Z"/><path class="cls-2" d="M92.41,96.59h14.87V99H95v5.29h7.35v2.41H95v6.47h13.37v2.41H92.41Z"/><path class="cls-2" d="M126.31,115.58h-2.59v-8l-8.61-11h3.29l6.68,8.59,6.66-8.59h3l-8.46,10.91Z"/><path class="cls-2" d="M145,101.46c0,1.58,1.28,2.43,3.64,2.73l3.72.42c3.2.35,6.23,1.72,6.23,5.65,0,3.07-2.49,5.67-7.73,5.67-5.89,0-8.27-3-9.12-5.78h2.78c.64,1.44,2.27,3.4,6.34,3.4,3.31,0,5.13-1.34,5.13-3.16,0-2.25-1.57-2.91-3.85-3.21l-3.74-.4c-3.43-.35-6-2-6-5.32,0-3.1,2.83-5.19,7.19-5.19,5.7,0,7.89,2.78,8.53,5.16h-2.7c-.64-1.28-2.19-2.78-5.83-2.78C146.56,98.65,145,99.75,145,101.46Z"/><path class="cls-2" d="M168.77,96.59h14.87V99h-12.3v5.29h7.36v2.41h-7.36v6.47h13.37v2.41H168.77Z"/><path class="cls-2" d="M194.15,96.59h10.08c4.09,0,6.26,1.82,6.26,5.38a4.69,4.69,0,0,1-3.88,4.89l4.6,8.72h-2.75l-4.55-8.45h-7.17v8.45h-2.59ZM196.74,99v5.75h7.41c2.46,0,3.67-.86,3.67-2.78s-1.21-3-3.67-3Z"/><path class="cls-2" d="M230,115.66h-2.43L219,96.59H222l6.85,15.7,6.85-15.7h2.64Z"/><path class="cls-2" d="M247.65,96.59h2.6v19h-2.6Z"/><path class="cls-2" d="M260.41,106.09c0-5.49,4-9.82,9.38-9.82,5.57,0,8.11,3.61,8.75,5.88h-2.7a6.6,6.6,0,0,0-6-3.45c-4.06,0-6.68,3.4-6.68,7.39s2.62,7.38,6.68,7.38a6.44,6.44,0,0,0,6.1-3.48h2.65c-.56,2.14-2.94,5.91-8.75,5.91C264.37,115.9,260.41,111.57,260.41,106.09Z"/><path class="cls-2" d="M288.48,96.59h14.87V99h-12.3v5.29h7.35v2.41h-7.35v6.47h13.37v2.41H288.48Z"/><path class="cls-2" d="M315.3,101.46c0,1.58,1.29,2.43,3.64,2.73l3.72.42c3.21.35,6.23,1.72,6.23,5.65,0,3.07-2.49,5.67-7.73,5.67-5.88,0-8.26-3-9.12-5.78h2.78c.64,1.44,2.27,3.4,6.34,3.4,3.32,0,5.13-1.34,5.13-3.16,0-2.25-1.57-2.91-3.85-3.21l-3.74-.4c-3.42-.35-6-2-6-5.32,0-3.1,2.83-5.19,7.19-5.19,5.7,0,7.89,2.78,8.53,5.16h-2.7c-.64-1.28-2.19-2.78-5.83-2.78C316.83,98.65,315.3,99.75,315.3,101.46Z"/></g></g></svg>