<svg xmlns="http://www.w3.org/2000/svg" viewBox="0 0 201.91 233.98"><defs><style>.cls-1{fill:#064481;}.cls-2{fill:#848482;}</style></defs><g id="Layer_2" data-name="Layer 2"><g id="Layer_1-2" data-name="Layer 1"><path class="cls-1" d="M197.31,76.05l-7.83,1.25a4,4,0,0,0,.08.48A92.34,92.34,0,0,1,192,94.32l0,1.06H170.36l-.06-.94a68.85,68.85,0,0,0-17-40.79l-.6-.7,15.31-15.31.7.77c2.12,2.37,3.79,4.37,5.26,6.36a4.05,4.05,0,0,0,5.56.79,4,4,0,0,0,.8-5.54A97.66,97.66,0,0,0,171,29.12,98.71,98.71,0,0,0,100.72,0,97.39,97.39,0,0,0,90.18.56,3.81,3.81,0,0,0,87.52,2a3.84,3.84,0,0,0-.86,2.92A4,4,0,0,0,91,8.46c1.55-.18,3.1-.3,4.67-.38l1-.06V29.71l-.93.08A68.71,68.71,0,0,0,55,46.71l-.69.62L39,32l.78-.7A90.6,90.6,0,0,1,54,20.81a3.67,3.67,0,0,0,1-.87l-4-6.37a3.23,3.23,0,0,0-1.05.41A100.41,100.41,0,0,0,30.51,29.1,98.91,98.91,0,0,0,1.39,99.35a100,100,0,0,0,3.46,26l7.75-1.83A91.22,91.22,0,0,1,32.7,38.39l.69-.79L48.72,53l-.59.7A70.07,70.07,0,0,0,35.08,75.81a3.82,3.82,0,0,0,.14,3,4,4,0,0,0,2.24,2.05,4,4,0,0,0,5.09-2.39A62.18,62.18,0,0,1,57.07,55.67a61.32,61.32,0,0,1,43.65-18.11,4,4,0,0,0,4-4V8l1,.06a90.29,90.29,0,0,1,55.93,23.2l.77.72L147.12,47.33l-.7-.62A69.18,69.18,0,0,0,134,38a4,4,0,0,0-5.38,1.59A4,4,0,0,0,130.14,45a62,62,0,0,1,32.39,54.34,63.73,63.73,0,0,1-1.11,11.7c-.24,1.25-.56,2.62-.93,4a2.53,2.53,0,0,0-.1.67l7.66,1.73a2.42,2.42,0,0,0,.1-.36c.44-1.55.78-3.13,1.07-4.6a67.68,67.68,0,0,0,1.08-8.29l.06-.93H192v1a90.19,90.19,0,0,1-23.2,56l-.7.8L150,143a4,4,0,0,0-3.58-1.09c-.29.08-.51.14-.73.22a4.34,4.34,0,0,0-1.31.87,61.6,61.6,0,0,1-18.51,12.77,4,4,0,0,0-2.23,4.49,3.91,3.91,0,0,0,2.13,2.7,3.82,3.82,0,0,0,3.3.1,69.62,69.62,0,0,0,17.33-11.12l.7-.59,15.33,15.33-.77.69A90.36,90.36,0,0,1,132.84,185a4,4,0,0,0,2.78,7.45,99,99,0,0,0,35.27-22.8l.32-.28a98.75,98.75,0,0,0,28.86-69.95v-.14A100,100,0,0,0,197.31,76.05Z"/><path class="cls-1" d="M77.7,160.19l0,.2a4,4,0,0,1-2.2,2.57,3.84,3.84,0,0,1-3.23,0A69.2,69.2,0,0,1,55,151.94l-.68-.6L39,166.67l.77.72a89.82,89.82,0,0,0,21.93,14.53l-3.08,7.37A98.57,98.57,0,0,1,30.47,169.5a101.54,101.54,0,0,1-11.7-14.08,4,4,0,0,1-.57-3.19,3.83,3.83,0,0,1,2-2.55,3.48,3.48,0,0,1,1.74-.45,4.51,4.51,0,0,1,3.62,2,86,86,0,0,0,7.17,9.08l.69.77,15.33-15.33-.6-.69A69.88,69.88,0,0,1,33,116.28,4,4,0,0,1,36,111.42a3.91,3.91,0,0,1,3,.49,3.72,3.72,0,0,1,1.77,2.42,62.33,62.33,0,0,0,16.36,28.73,61.28,61.28,0,0,0,18.34,12.65A4,4,0,0,1,77.7,160.19Z"/><path class="cls-1" d="M59.93,23.07A10.69,10.69,0,1,1,70.61,12.38,10.71,10.71,0,0,1,59.93,23.07Zm0-15.42a4.73,4.73,0,1,0,4.72,4.73A4.73,4.73,0,0,0,59.93,7.65Z"/><path class="cls-1" d="M36.08,96.61A10.69,10.69,0,1,1,46.77,85.93,10.7,10.7,0,0,1,36.08,96.61Zm0-15.41a4.73,4.73,0,1,0,4.73,4.73A4.73,4.73,0,0,0,36.08,81.2Z"/><path class="cls-1" d="M162.23,134.51a10.69,10.69,0,1,1,10.68-10.69A10.7,10.7,0,0,1,162.23,134.51Zm0-15.41a4.73,4.73,0,1,0,4.73,4.72A4.73,4.73,0,0,0,162.23,119.1Z"/><path class="cls-1" d="M67.13,200.54a10.69,10.69,0,1,1,10.69-10.69A10.69,10.69,0,0,1,67.13,200.54Zm0-15.41a4.73,4.73,0,1,0,4.73,4.72A4.74,4.74,0,0,0,67.13,185.13Z"/><path class="cls-1" d="M191.22,80.14a10.69,10.69,0,1,1,10.69-10.68A10.69,10.69,0,0,1,191.22,80.14Zm0-15.41A4.73,4.73,0,1,0,196,69.46,4.73,4.73,0,0,0,191.22,64.73Z"/><path class="cls-1" d="M10.69,142.11a10.69,10.69,0,1,1,10.68-10.69A10.7,10.7,0,0,1,10.69,142.11Zm0-15.42a4.73,4.73,0,1,0,4.72,4.73A4.73,4.73,0,0,0,10.69,126.69Z"/><path class="cls-2" d="M115.51,99.4a14.78,14.78,0,1,1-14.76-14.76A14.78,14.78,0,0,1,115.51,99.4Z"/><path class="cls-2" d="M100.72,52.54A46.86,46.86,0,0,0,86,143.86a46.71,46.71,0,0,0,29.56,0,46.86,46.86,0,0,0-14.79-91.32ZM123.1,122a9.11,9.11,0,0,0-13.7,5.31,9.87,9.87,0,0,0-.26,2.75,31.42,31.42,0,0,1-8.39,1.17,31.77,31.77,0,0,1-8.46-1.17,9.07,9.07,0,0,0-11.45-9.2A10.15,10.15,0,0,0,78.36,122a32,32,0,0,1-8.42-14.59,9,9,0,0,0,0-16.1,32,32,0,0,1,8.42-14.59A9,9,0,0,0,92.29,68.7a31.77,31.77,0,0,1,8.46-1.17,31.42,31.42,0,0,1,8.39,1.17,10,10,0,0,0,.26,2.77,9,9,0,0,0,13.7,5.26,31.85,31.85,0,0,1,8.4,14.62,9,9,0,0,0,0,16.1A32.07,32.07,0,0,1,123.1,122Z"/><polygon class="cls-2" points="115.5 138.99 85.96 138.99 85.96 225.45 90.89 228.3 100.73 233.99 115.5 225.45 115.5 225.4 108.02 212.45 110.01 209 115.5 199.5 115.5 191.83 108.02 178.88 115.5 165.93 115.5 138.99"/></g></g></svg>