<svg xmlns="http://www.w3.org/2000/svg" viewBox="0 0 399.72 63.98"><defs><style>.cls-1{fill:#fff;}.cls-2{fill:#848482;}</style></defs><g id="Layer_2" data-name="Layer 2"><g id="Layer_1-2" data-name="Layer 1"><path class="cls-1" d="M54,20.8l-2.14.34s0,.08,0,.13a24.92,24.92,0,0,1,.67,4.52v.29H46.58v-.26a18.83,18.83,0,0,0-4.64-11.15l-.16-.19L46,10.29l.19.21c.58.65,1,1.2,1.44,1.74a1.11,1.11,0,0,0,1.52.22,1.08,1.08,0,0,0,.22-1.52,28,28,0,0,0-2.57-3A27,27,0,0,0,27.54,0a27.64,27.64,0,0,0-2.88.15,1.05,1.05,0,0,0-.73.4,1,1,0,0,0-.23.8,1.08,1.08,0,0,0,1.19,1c.42-.05.85-.08,1.28-.1l.29,0V8.12l-.26,0a18.78,18.78,0,0,0-11.15,4.62l-.19.17-4.2-4.2.21-.19a24.89,24.89,0,0,1,3.9-2.86A1,1,0,0,0,15,5.45l-1.1-1.74a1.15,1.15,0,0,0-.29.11A27.89,27.89,0,0,0,8.34,8a27.12,27.12,0,0,0-7,26.31l2.11-.49A25,25,0,0,1,8.94,10.5l.19-.22,4.19,4.2-.16.19a19.3,19.3,0,0,0-3.57,6.06,1.08,1.08,0,0,0,0,.83,1.05,1.05,0,0,0,.61.56,1.1,1.1,0,0,0,1.39-.65,17.09,17.09,0,0,1,4-6.25,16.8,16.8,0,0,1,11.94-5,1.09,1.09,0,0,0,1.09-1.09v-7l.29,0A24.67,24.67,0,0,1,44.21,8.55l.21.2-4.19,4.19L40,12.77a18.72,18.72,0,0,0-3.41-2.37,1.09,1.09,0,0,0-1.47.43,1,1,0,0,0-.09.84,1.12,1.12,0,0,0,.51.64,16.93,16.93,0,0,1,8.86,14.86,17.3,17.3,0,0,1-.3,3.19c-.07.35-.15.72-.26,1.11a1.11,1.11,0,0,0,0,.19l2.09.47,0-.1c.12-.42.21-.86.29-1.26a19.88,19.88,0,0,0,.3-2.26v-.26H52.5v.27a24.69,24.69,0,0,1-6.35,15.31l-.19.22L41,39.1a1.1,1.1,0,0,0-1-.3l-.2.06a1.61,1.61,0,0,0-.36.24,16.7,16.7,0,0,1-5.06,3.5,1.08,1.08,0,0,0,0,2,1.05,1.05,0,0,0,.9,0,19.33,19.33,0,0,0,4.74-3l.19-.17,4.19,4.2-.21.19a24.71,24.71,0,0,1-7.89,4.8,1.09,1.09,0,0,0-.68,1.18,1.06,1.06,0,0,0,.53.78,1.08,1.08,0,0,0,.91.08,27,27,0,0,0,9.65-6.23l.09-.08a27,27,0,0,0,7.89-19.13v0A27.54,27.54,0,0,0,54,20.8Z"/><path class="cls-1" d="M21.25,43.8l0,.06a1.09,1.09,0,0,1-1.48.71,18.92,18.92,0,0,1-4.7-3l-.19-.17-4.19,4.2.21.19a24.66,24.66,0,0,0,6,4l-.84,2a27.18,27.18,0,0,1-7.7-5.41,28.67,28.67,0,0,1-3.2-3.85A1.13,1.13,0,0,1,5,41.62a1,1,0,0,1,.53-.69A.94.94,0,0,1,6,40.8a1.24,1.24,0,0,1,1,.54,23.86,23.86,0,0,0,2,2.49l.19.21,4.19-4.2-.16-.18A18.94,18.94,0,0,1,9,31.79a1.09,1.09,0,0,1,.79-1.32,1.06,1.06,0,0,1,.83.13,1,1,0,0,1,.48.66,17,17,0,0,0,4.48,7.86,16.77,16.77,0,0,0,5,3.46A1.08,1.08,0,0,1,21.25,43.8Z"/><path class="cls-1" d="M16.39,6.31a2.93,2.93,0,1,1,2.92-2.92A2.93,2.93,0,0,1,16.39,6.31Zm0-4.22a1.3,1.3,0,1,0,1.29,1.3A1.3,1.3,0,0,0,16.39,2.09Z"/><path class="cls-1" d="M9.87,26.42a2.93,2.93,0,1,1,2.92-2.92A2.93,2.93,0,0,1,9.87,26.42Zm0-4.22a1.3,1.3,0,1,0,1.29,1.3A1.3,1.3,0,0,0,9.87,22.2Z"/><path class="cls-1" d="M44.36,36.78a2.92,2.92,0,1,1,2.92-2.92A2.92,2.92,0,0,1,44.36,36.78Zm0-4.21a1.29,1.29,0,1,0,1.29,1.29A1.29,1.29,0,0,0,44.36,32.57Z"/><path class="cls-1" d="M18.36,54.84a2.93,2.93,0,1,1,2.92-2.93A2.94,2.94,0,0,1,18.36,54.84Zm0-4.22a1.3,1.3,0,1,0,1.29,1.29A1.3,1.3,0,0,0,18.36,50.62Z"/><path class="cls-1" d="M52.29,21.91A2.92,2.92,0,1,1,55.21,19,2.92,2.92,0,0,1,52.29,21.91Zm0-4.21A1.3,1.3,0,1,0,53.58,19,1.29,1.29,0,0,0,52.29,17.7Z"/><path class="cls-1" d="M2.92,38.86a2.93,2.93,0,1,1,2.92-2.92A2.92,2.92,0,0,1,2.92,38.86Zm0-4.22a1.3,1.3,0,1,0,1.29,1.3A1.3,1.3,0,0,0,2.92,34.64Z"/><path class="cls-2" d="M31.58,27.18a4,4,0,1,1-4-4A4,4,0,0,1,31.58,27.18Z"/><path class="cls-2" d="M27.54,14.37a12.81,12.81,0,0,0-4,25,12.88,12.88,0,0,0,8.08,0,12.81,12.81,0,0,0-4-25Zm6.12,19a2.5,2.5,0,0,0-3.75,1.45,3.18,3.18,0,0,0-.07.75,8.43,8.43,0,0,1-4.6,0A2.52,2.52,0,0,0,24,33.31a2.48,2.48,0,0,0-1.9-.25,2.63,2.63,0,0,0-.68.31,8.77,8.77,0,0,1-2.31-4,2.47,2.47,0,0,0,0-4.4,8.72,8.72,0,0,1,2.31-4,2.33,2.33,0,0,0,.68.31,2.48,2.48,0,0,0,1.9-.24,2.52,2.52,0,0,0,1.23-2.27,8.43,8.43,0,0,1,4.6,0,3.18,3.18,0,0,0,.07.75,2.58,2.58,0,0,0,1.17,1.52A2.51,2.51,0,0,0,33.66,21,8.78,8.78,0,0,1,36,25a2.46,2.46,0,0,0,0,4.4A8.86,8.86,0,0,1,33.66,33.37Z"/><polygon class="cls-2" points="31.58 38.01 23.5 38.01 23.5 61.65 24.85 62.43 27.54 63.98 31.58 61.65 31.58 61.63 29.54 58.09 30.08 57.15 31.58 54.55 31.58 52.45 29.54 48.91 31.58 45.37 31.58 38.01"/><path class="cls-2" d="M70.83,21.55h2.59v19H70.83Z"/><path class="cls-2" d="M82.8,21.55h18.36V24H93.28V40.52H90.69V24H82.8Z"/><path class="cls-2" d="M112.23,26.41c0,1.58,1.28,2.43,3.63,2.73l3.72.43c3.21.34,6.23,1.71,6.23,5.63,0,3.08-2.49,5.67-7.73,5.67-5.88,0-8.26-3-9.11-5.77h2.78c.64,1.44,2.27,3.39,6.33,3.39,3.32,0,5.13-1.33,5.13-3.15,0-2.25-1.57-2.91-3.85-3.21l-3.74-.4c-3.42-.35-6-2-6-5.32,0-3.1,2.83-5.18,7.19-5.18,5.69,0,7.88,2.78,8.52,5.16h-2.7c-.64-1.29-2.19-2.78-5.82-2.78C113.75,23.61,112.23,24.7,112.23,26.41Z"/><path class="cls-1" d="M139.87,32v8.52h-4.55v-19h4.55v8.2l8.68-8.2h5.91l-9.65,9.14,10.07,9.83h-6.19Z"/><path class="cls-2" d="M163.07,21.55h14.86V24h-12.3v5.3H173v2.4h-7.35v6.47H179v2.4H163.07Z"/><path class="cls-2" d="M197,40.52h-2.59v-8l-8.61-11h3.29l6.68,8.58,6.65-8.58h3L197,32.45Z"/><path class="cls-1" d="M217.27,26.63c0,1,.88,1.63,2.57,1.81,1,.11,1.81.16,3,.27,4.33.35,7.19,2,7.19,6,0,3.74-2.89,6.12-8.42,6.12-6.52,0-8.87-3.26-9.51-6h4.78c.43,1,1.76,2.3,4.73,2.3,2.54,0,3.72-.86,3.72-2.14s-1-1.9-2.76-2.08c-1.15-.14-1.92-.19-3-.3-4.17-.42-6.92-2.29-6.92-5.88s3.29-5.61,8-5.61c6.22,0,8.41,3,9,5.37H225c-.42-.72-1.73-1.73-4.4-1.73C218.45,24.84,217.27,25.48,217.27,26.63Z"/><path class="cls-2" d="M239.67,21.55h14.86V24H242.24v5.3h7.34v2.4h-7.34v6.47H255.6v2.4H239.67Z"/><path class="cls-2" d="M265,21.55h10.07c4.09,0,6.25,1.82,6.25,5.37a4.68,4.68,0,0,1-3.87,4.89l4.6,8.71h-2.76l-4.54-8.44h-7.16v8.44H265Zm2.59,2.4V29.7H275c2.46,0,3.66-.86,3.66-2.78s-1.2-3-3.66-3Z"/><path class="cls-2" d="M300.85,40.6h-2.43l-8.5-19h2.94l6.84,15.69,6.84-15.69h2.65Z"/><path class="cls-2" d="M318.52,21.55h2.59v19h-2.59Z"/><path class="cls-2" d="M331.27,31c0-5.48,4-9.81,9.38-9.81,5.56,0,8.09,3.61,8.74,5.88h-2.7a6.57,6.57,0,0,0-6-3.45c-4.07,0-6.68,3.39-6.68,7.38s2.61,7.37,6.68,7.37a6.43,6.43,0,0,0,6.09-3.47h2.65c-.57,2.14-2.94,5.9-8.74,5.9C335.22,40.84,331.27,36.51,331.27,31Z"/><path class="cls-2" d="M359.33,21.55h14.86V24H361.9v5.3h7.35v2.4H361.9v6.47h13.36v2.4H359.33Z"/><path class="cls-2" d="M386.14,26.41c0,1.58,1.28,2.43,3.63,2.73l3.72.43c3.21.34,6.23,1.71,6.23,5.63,0,3.08-2.49,5.67-7.73,5.67-5.88,0-8.26-3-9.11-5.77h2.78c.64,1.44,2.27,3.39,6.33,3.39,3.32,0,5.13-1.33,5.13-3.15,0-2.25-1.57-2.91-3.84-3.21l-3.75-.4c-3.42-.35-6-2-6-5.32,0-3.1,2.83-5.18,7.19-5.18,5.69,0,7.88,2.78,8.52,5.16h-2.7c-.64-1.29-2.19-2.78-5.82-2.78C387.66,23.61,386.14,24.7,386.14,26.41Z"/></g></g></svg>